<svg xmlns="http://www.w3.org/2000/svg" width="1864" height="882" viewBox="0 0 1864 882">
  <rect width="1864" height="882" fill="#fff"/>
  <g font-family="Inter, Helvetica, Arial, sans-serif">
    <rect x="14" y="109" width="666" height="327" rx="25" fill="#f1f1f1"/>
    <circle cx="75" cy="193" r="10" fill="#858585"/>
    <path d="M75 203V570H854V194H952" fill="none" stroke="#858585" stroke-width="2" stroke-dasharray="7 7"/>
    <circle cx="952" cy="194" r="10" fill="#858585"/>

    <text x="109" y="207" font-size="36" font-weight="700" fill="#777">Project Context</text>
    <text x="109" y="278" font-size="30" fill="#111">Severe market homogenization</text>
    <text x="109" y="346" font-size="30" fill="#111">Low differentiation, limited premium potential</text>

    <text x="109" y="548" font-size="34" font-weight="700" fill="#777">Research Path</text>
    <text x="109" y="627" font-size="29" fill="#111">Market landscape: positioning &amp; selling points</text>
    <text x="109" y="694" font-size="29" fill="#111">Competitor review: design language &amp; CMF</text>
    <text x="109" y="761" font-size="29" fill="#111">User trends: lifestyles &amp; emerging interests</text>

    <rect x="902" y="109" width="930" height="667" rx="25" fill="#f1f1f1"/>
    <text x="986" y="207" font-size="36" font-weight="700" fill="#777">Key Insights</text>
    <g font-size="28" fill="#111">
      <text x="942" y="286">&#8226;</text><text x="997" y="286">Reframe around the product's core user value</text>
      <text x="942" y="355">&#8226;</text><text x="997" y="355">Young users: documentation, social expression,</text>
      <text x="997" y="397">creative interests</text>
      <text x="942" y="466">&#8226;</text><text x="997" y="466">Emerging device trends create a new opportunity</text>
    </g>
    <text x="1135" y="605" font-size="34" font-weight="700" fill="#18202e" text-anchor="middle">A new portable imaging form</text>
    <text x="1367" y="654" font-size="30" font-weight="700" fill="#18202e" text-anchor="middle">built around XX / XX / XX</text>
  </g>
</svg>
